<?xml version="1.0" encoding="UTF-8"?>
<!-- Generator: Adobe Illustrator 22.0.1, SVG Export Plug-In . SVG Version: 6.00 Build 0)  -->
<svg width="500px" height="176px" xmlns="http://www.w3.org/2000/svg" xmlns:xlink="http://www.w3.org/1999/xlink" x="0px" y="0px" viewBox="0 0 224.7 79.7" style="enable-background:new 0 0 224.7 79.7;" xml:space="preserve">
<style type="text/css">
	.st0{fill:#11806E;}
</style>
<g id="At_Esencia">
</g>
<g id="Viridian">
	<g>
		<path class="st0" d="M49.2,42.3c0.3-0.1,0.2-0.6,0.1-0.5c-0.2,0.2-0.4,0.6-0.6,1.1C48.8,42.8,49.1,42.7,49.2,42.3z"></path>
		<path class="st0" d="M57,29.6c0-0.1,0.4-0.5,0-0.5c-0.1,0.3-0.2,0.5-0.3,0.8C57,30,57,29.9,57,29.6z"></path>
		<path class="st0" d="M55.6,31.9c-0.1,0.2-0.6,0-0.4,0.4c0.2,0,0.2,0.1,0.4,0.1C55.6,32.2,55.8,32,55.6,31.9z"></path>
		<path class="st0" d="M49.8,42.4c-0.1,0.1-0.3,0-0.3,0.2C49.7,42.6,49.8,42.6,49.8,42.4z"></path>
		<path class="st0" d="M58.2,27c0.1,0.3-0.5,0.4-0.2,0.6C58.4,27.7,58.7,27.1,58.2,27z"></path>
		<path class="st0" d="M51.2,38.8c0.1-0.2,0.1-0.2,0.3-0.2c0.2-0.3,0.1-0.5,0.1-0.8c0.3-0.1,0.8-0.5,0.4-0.7c-0.4,0.9-1,1.6-1.5,2.6    C50.9,39.7,51.1,39.1,51.2,38.8z"></path>
		<path class="st0" d="M52.1,38.5c0-0.2,0.2-0.2,0.2-0.3C52.1,38.1,51.9,38.5,52.1,38.5z"></path>
		<path class="st0" d="M53,35.7c0.2-0.2,0.7-0.6,0.4-1.1c-0.3,0.7-1,1.5-1.1,2.1C52.7,36.7,52.7,36.1,53,35.7z"></path>
		<path class="st0" d="M50.5,39.9C50.1,40,50,40.2,50,40.6C50.3,40.5,50.3,40.2,50.5,39.9z"></path>
		<path class="st0" d="M53.6,34.4c0.3-0.3,0.7-0.8,0.6-1.2C53.9,33.5,53.7,34,53.6,34.4z"></path>
		<path class="st0" d="M58.7,26c0,0.2-0.4,0.5-0.2,0.6C58.7,26.6,59.1,26.1,58.7,26z"></path>
		<path class="st0" d="M53.4,35.7c0.1-0.1,0.4-0.7,0.2-0.5C53.5,35.3,53.2,35.6,53.4,35.7z"></path>
		<path class="st0" d="M54.2,35.2c0-0.1,0.3-0.5,0.1-0.5C54.2,34.8,53.9,35,54.2,35.2z"></path>
		<path class="st0" d="M52.8,37.3c-0.2-0.1-0.4,0.4-0.2,0.4C52.6,37.5,52.9,37.5,52.8,37.3z"></path>
		<path class="st0" d="M53.4,39.5c0.2,0,0.3-0.2,0.4-0.4C53.5,39.2,53.5,39.3,53.4,39.5z"></path>
		<path class="st0" d="M57.1,33.2c0.2-0.3,0.6-1.1,0.5-1.2C57.5,32.4,56.9,32.8,57.1,33.2z"></path>
		<path class="st0" d="M55.9,35.1c0.3,0,0.6-0.6,0.3-0.6C56.1,34.9,55.9,34.8,55.9,35.1z"></path>
		<path class="st0" d="M54.8,36.3c0.1-0.1,0.3-0.3,0-0.3C54.8,36,54.6,36.3,54.8,36.3z"></path>
		<path class="st0" d="M57.9,31.4c0,0.2-0.2,0.2-0.2,0.4C57.9,31.9,58.1,31.5,57.9,31.4z"></path>
		<path class="st0" d="M55,31.9c0.6-0.3,1.3-1.8,1.7-2.4c0.1-0.1,0-0.3,0-0.4c0.5-0.8,1-1.4,1.3-2.1c0.5-0.9,0.9-2,1.5-2.5    c-0.5,0.6,0.5,0,0.5,0.3c0,0.1-0.3,0.1-0.3,0.1c-0.2,0.3,0,0.4-0.4,0.6c-0.1,0.1-0.3-0.1-0.4,0.1c0.6,0.2-0.3,0.6,0.1,1.1    c-0.3,0.3-0.5,0.5-0.4,0.8c-0.1,0.2-0.7,0.2-0.5,0.4c-0.1,0.3-0.3,0.9-0.3,1.1c-0.1,0-0.2-0.1-0.3,0c-0.3,0.3-0.1,0.6-0.4,0.3    c0.1,0.3-0.4,0.4,0.3,0.4c-0.4,0-0.5,0.7-0.5,0.8c-0.5,0-1.1,0.9-0.9,1.5c-0.3,0.1-0.5,0.6-0.8,0.8c-0.1,0.1-0.2,0.3,0.2,0.3    c-0.6,1-1.1,2.2-2,3c0.2,0.7-0.4,1.3-0.5,1.5c0.6-0.2,0.7-1.1,0.9-1.5c0.1-0.1,0.4,0.3,0.5,0.2c-0.3-0.2,0-0.6,0.2-0.6    c-0.1-0.4,0.3-0.8,0.6-1.5c0.4-0.8,1-1.4,1.3-2.1c0.3-0.3,0.5-0.6,0.7-1c-0.2,0-0.2,0.2-0.3,0.2c0.1-0.3,0.3-0.7,0.5-1.1    c0.2,0.2,0.3-0.7,0.4-0.8h0.2c0.2-0.4,0.2-0.6,0.4-0.7c-0.4-0.4,0.5-0.6,0.3-1.1c0.6-0.1,0.5-0.8,0.8-1.2c0.1-0.1,0.3-0.1,0.3-0.2    C60.1,26.3,60,26,60,26c0.3-0.5,0.7-0.9,0.9-1.3c0,0.4,0.5-0.3,0.2-0.3c0.1-0.4,0.3-0.4,0.4-0.7c0.2-0.3,0.1-0.8,0.3-1.2    c0.3-0.3,0.4-0.4,0.5-0.6c0,0,0.2-0.1,0.3-0.1c0.2-0.5-0.1-1-0.1-1.1c0.1-0.2,0.5-0.3,0.2-0.5c-0.2,0.3-0.2,0.5-0.5,0.6    c0.4-0.8,0.6-1.7,0.4-2.6c-0.3,0.3-0.1-0.6-0.2-0.8c-0.3-0.1-0.2-0.5-0.5-0.4c-0.1,0.2,0.1,0.5-0.2,0.5c0.2-0.4-0.3-0.3-0.3-0.4    c-0.1,0.3,0.5,0.3,0.2,0.5c-0.4-0.1-0.2,0.7-0.7,1c0.2-0.7,0.7-1.7,0.2-1.9c-0.1,1.1-0.4,2.4-0.7,3.2c0.2,0.2,0.3-0.4,0.2,0.4    c0.5-0.1,0.1,0.8,0.6-0.1c0,0.7-0.7,0.7-0.8,1.4c0.3,0.1,0.1-0.4,0.4-0.3c0,0.5-0.4,0.6-0.6,1c-0.1,0.1,0,0.4-0.1,0.6    c-0.4,0-0.4,0.7-0.5,1.1c0,0-0.2-0.1-0.2,0c-0.3,0.7-0.5,1.6-1.1,2.2c0.3-0.6,0.1-0.4-0.2-0.1c-0.2,0.3-0.2,0.5-0.3,0.8    c0.1-0.3-0.4,1.3-0.5,0.5c0.1,0.3-0.4,0.8-0.1,1.1c-0.1,0.1-0.4,0-0.4,0.1c0.3,0.5-0.3,0.7-0.4,1c-0.2,0.6-0.5,0.8-0.7,1.3    c-0.1,0.2-0.1,0.5-0.2,0.6c-0.3,0.5-0.6,0.8-0.8,1.3c0,0.1-0.2,0.4,0,0.5C54.6,32.7,55.2,32.3,55,31.9z M56.3,31.9    c0-0.2,0-0.2,0-0.3C56.7,31.4,56.7,32,56.3,31.9z M59.5,25.6c0-0.3,0.3-0.1,0.4-0.3C60.2,25.5,59.8,25.8,59.5,25.6z M61.9,20.2    c0.2,0,0.2,0.9-0.5,1C61.4,20.7,61.7,20.6,61.9,20.2z M60.6,19.4c0-0.2,0.2-0.2,0.2-0.5C61.1,18.9,60.9,19.4,60.6,19.4z     M60.8,23.5c0.1,0.3-0.3,1-0.5,1.4C60.1,24.3,60.7,23.9,60.8,23.5z M59.8,23.7c0.3,0.1-0.2,0.2,0.1,0.3c0.2-0.1,0.3-0.3,0.4-0.4    c0.3,0.1-0.1,0.7-0.4,0.8C60,24.1,59.5,24,59.8,23.7z"></path>
		<path class="st0" d="M48.7,45c0.3,0.1,0.3-0.3,0.4-0.3C48.7,44.6,48.8,44.8,48.7,45z"></path>
		<path class="st0" d="M58.4,30.6c-0.2,0.1-0.4,0.5,0,0.5C58.2,30.8,58.8,30.7,58.4,30.6z"></path>
		<path class="st0" d="M52.6,40.8C52.6,40.8,52.6,40.8,52.6,40.8C52.5,40.8,52.5,40.8,52.6,40.8z"></path>
		<path class="st0" d="M51.9,38.4c0-0.1,0.3-0.4,0.1-0.4C52.1,38.1,51.6,38.3,51.9,38.4z"></path>
		<path class="st0" d="M51.9,40.7c0.1-0.3,0.5-0.6,0.4-0.8C52.2,40.2,51.7,40.4,51.9,40.7z"></path>
		<path class="st0" d="M50.8,40.3c0.1,0,0.2,0.1,0.3,0.1C51.4,40.1,51,40.2,50.8,40.3z"></path>
		<path class="st0" d="M52.9,37.7c0.1,0.5-0.5,0.5-0.2,0.9c-0.2,0.1-0.1,0-0.4,0c0,0.7-0.7,0.7-0.6,1.5c-0.4-0.1-0.4,0.5-0.7,0.8    c0,0.1-0.1,0-0.2,0c-0.3,0.6-0.4,1.3-0.8,1.7c-0.1,0.1-0.3,0.4-0.5,0.6c-0.1,0.2-0.4,0.5-0.2,0.7c0.3-0.7,1.1-1.2,1.1-1.9    c0.1-0.1,0.2,0,0.3,0.1c0.2-0.5,0.4-0.7,0.5-1.1c0.1-0.1-0.1-0.3,0-0.5c0.1-0.3,0.9-0.3,0.6-0.8c0.4,0.1,0.7-0.6,0.2-0.3    c0.5-0.6,0.9-1.1,1.2-1.9C53.1,38,53.2,37.9,52.9,37.7z"></path>
		<path class="st0" d="M52.6,41.2c0.3-0.4,0.3-0.4,0.5-0.7c-0.2,0.1-0.4,0.2-0.5,0.3C52.8,40.8,52.3,41.2,52.6,41.2z"></path>
		<path class="st0" d="M52.8,39c-0.2,0.2-0.2,0.4-0.4,0.6C52.7,39.7,52.9,39.1,52.8,39z"></path>
		<path class="st0" d="M57.1,35.5c0.1-0.1-0.1-0.3,0.1-0.4c0.2-0.2,0.3-0.2,0.4-0.3c0.3-0.5,0.4-1.2,0.8-1.8    c0.1-0.2,0.3-0.2,0.3-0.3c0.1-0.1-0.1-0.3,0-0.4c0.1-0.1,0.3-0.2,0.6-1.1c0.1-0.1,0.5-0.4,0.5-0.6l0.2-0.7    c0.1-0.2,0.4-0.3,0.5-0.4c0.1-0.2-0.1-0.3-0.1-0.4c0-0.1,0.3-0.2,0.4-0.3c0.1-0.1-0.2-0.2-0.2-0.3l0.4-1.1c0-0.1,0.3-0.2,0.3-0.2    c0.3-0.5,0.4-1,0.6-1.5c-0.3,0.4-0.5,0.9-0.8,1.3c0.1-0.6,0.6-1.3,0.8-1.9c0.2-0.3,0.4-0.8,0.3-0.7c-0.5,0.6-0.7,1.1-1.1,1.9    c-0.2,0.3-0.4,0.8-0.6,1.1c-0.2,0.4-0.3,0.7-0.4,1.1c-0.5,1-1.3,1.6-1.3,2.5c-0.3-0.1-0.3,0.1-0.3,0.3c0.1,0,0.3-0.1,0.3,0.1    c-0.2,0.3-0.3,0.6-0.6,0.8c-0.1,0.1-0.3,0-0.4,0.2c-0.1,0.2-0.2,0.3,0.1,0.4c-0.2,0.4-0.4,0.6-0.8,1l-0.2,0.4c0.2,0,0.4,0,0.3,0.2    c-0.5,0.2-1.2,0.8-0.8,1.3c-0.4,0.3-0.6,0.4-0.8,0.7c-0.1,0.3,0.2,0.2,0.2,0.5c-0.1,0.3-0.6,0.5-0.6,0.4c0.3,0.3-0.3,0.4-0.4,0.6    c0.4-0.1-0.1,0.2,0.2,0.3c-0.3,0.3-0.6,0.3-0.8,0.6c-0.1,0.2,0.2,0.8-0.3,0.7v0.6c-0.2-0.1-0.4,0.2-0.5,0    c-0.1-0.4,0.5-0.3,0.2-0.5c-0.3,0.2-0.4,0.7-0.2,0.7c-0.3,0.5-0.1,1-0.7,1.3c0.1,0,0.1,0.1,0.2,0.1c-0.3,0-0.3,0.3-0.6,0.3    c0-0.2,0.2-0.3,0-0.3c-0.4,0.6-0.6,1.1-1.1,1.5c-0.1,0.4,0.3,1.1-0.3,1.2c-0.2-0.3,0.3-0.4,0-0.6c-0.2,0.3-0.2,0.8-0.7,0.8    c0,1-0.9,1-1,1.3c0.1-0.1,0.3-0.1,0.3,0c-0.1,0.3-0.3,0.1-0.5,0.2c-0.1,0.5,0.3-0.1,0.3,0.2c0,0.1-0.2,0.1-0.1,0.3    c-0.3-0.2-0.2-0.1-0.4,0c0.2,0.9-1.1,1.1-1,1.9c-0.4-0.2-0.6,0.4-0.9,0.7c0-0.5,0.3-0.5,0.5-1c-0.2-0.1-0.3,0.5-0.4,0.2l0.7-1    c-0.1-0.5,0.5-0.7,0.6-0.9c0-0.1-0.1-0.2-0.1-0.3c0.1-0.2,0.4-0.3,0.4-0.4c0.3-0.4-0.1-0.6,0.2-0.8c-0.8,0.5-1.1,2.2-1.9,2.5    c0,0.3-0.8,1.6-1,1.4c-0.3-0.3,0.5-0.6,0.3-0.8c-0.3,0-0.1,0.2-0.3,0.5c0-0.5-1.2,1.4-1.3,2c-1.1,0.8-1.4,2.3-2.4,3    c0.2-0.6,0.7-0.8,1-1.5c-0.4-0.2-0.5,0.3-0.6,0.6c-0.2-0.3-0.4,0.3-0.6,0.5c-0.2,0.3-0.4,0.7-0.7,1.1l-0.4,0.4    c-0.4,0.3-0.4,0.7-0.5,1c0.3-0.4,0.6-0.8,0.9-1.2c0.2,0.4-0.5,0.8-0.8,1.1c-0.2,0.3-0.3,0.7-0.6,0.8c0.2-0.2,0.3-0.5,0.5-0.7    c-0.2,0.1-0.4,0.1-0.5,0.3c-0.6,0.7-0.5,1-1,1.7c0.1-0.2,0.2-0.3,0.2-0.5c-0.4,0-0.3,0.4-0.5,0.6c-0.3,0.3-0.6,0.4-0.8,0.7    c-0.7,0.5-1,1.3-1.6,2c-0.3,0.3-0.7,0.5-1.1,0.7c-0.1,0.1-0.1,0.3-0.2,0.4c0,0.1-0.2-0.1-0.3,0c-0.3,0.3-0.7,1-1.1,0.8    c1.9-1.7,2.2-2.4,2.5-2.8c0.1-0.1,0.3-0.1,0.4-0.2c0.1-0.1,0.3-0.2,0.3-0.4c0.3-0.2,1.1-1.2,1.1-1.5L37,58.6    c-0.8,0.8-1.3,1.1-1.6,1.3c-0.2,0.2-0.2,0.4-0.3,0.6c-0.1,0.2-0.3,0.3-0.5,0.5c-0.3,0.3-0.8,0.5-1.5,1.3c-0.8,0.8-1.6,1.6-2.6,2.1    c-0.3-0.3-0.3-0.8-0.3-1.5l0.3-2.2c0.2-0.8,0.7-1.8,0.4-2.2c0.4-0.7,0.3-1.2,0.4-1.7c0.6-1.4,0.5-2.7,1-3.9c0-0.2,0.2-0.2,0.2-0.4    c0.1-0.2-0.2-0.4,0-0.5c0.2-0.6,0.5-1.9,0.5-2.4c0-0.1-0.2-1.1,0.3-1.3c0,0.1-0.2,0.3,0,0.4c0.3-0.4,0.3-0.7,0.4-1.1    c0-0.1-0.2-0.1-0.2-0.2c0-0.3,0.3-0.9,0.3-1.1c0,0-0.3,0-0.2-0.2c0.2,0.3,0.2-0.9,0.4-1.3c0.3-0.3,0.1-2.2,0.6-2.4    c-0.2-0.2-0.3-0.3-0.3-0.8c0.5,0.2,0.4-1,0.5-1.4c0.1-0.1-0.5-0.3,0.1-0.5c-0.2-0.8-0.2-1.3,0.3-1.9c0.1,0.3-0.3,0.6,0,0.8    c0.2-0.5,0.3-1.4,0.1-1.9c0.4-0.5,0.5-1.7,0.6-2.5c0-0.3-0.1-0.5,0-0.8c0-0.1,0.3-0.2,0.3-0.4c0.3-1,0.6-3.9,0.6-5.2    c0.2,0.1,0.3-2.5,0.3-2.9c0-0.2-0.2-0.2-0.2-0.4c0-0.3,0.1-0.5,0.1-0.8c0.1-1.4-0.1-2.1-0.3-3.1c-0.7-2.8-1.9-4.8-3.9-6    c-1.5-0.8-3-1.3-4.5-1.3c-0.8,0-1.9-0.1-2.6,0c-0.8,0.1-1.3,0.4-2,0.6c-0.2,0.1-0.3-0.1-0.5,0c-0.3,0.1-0.6,0.3-0.8,0.5    C21,15,20.3,15.6,19.1,16c0.4-0.7,1.3-0.6,1.7-1.2c-0.7,0.1-1.5,0.6-2.2,1.1c-1.2,0.7-2.3,1.3-3.1,2.3c-0.2,0.3-0.3,0.6-0.4,1    c-0.2,0-0.3-0.4-0.3,0c-0.1,0.6,0.6,0.5,0.9,0.7c0.3,0.1,0,0.2,0.3,0.3c0.2,0,0.2-0.3,0.5-0.3c0,0,0.4,0.4,0.5,0.1v0.3    c0.8,0.1,1.7-1.7,2-1.1c1-0.9,3.3-2.1,4.7-2.5c0.3-0.1,0.8-0.5,0.5-0.1c2.1-0.6,3.2-1,4.5-1c1.1,0,2.6,0.3,3.3,1.3    c0.6,1,0.7,2.2,0.7,3.3c0,0.7-0.1,1.4-0.1,2.1c0,0.6,0.2,1.9-0.3,1.9c0-0.3,0.3-0.8,0-1.2c0,0.7-0.4,1.3,0.2,1.5    c0,0.2-0.1,0.3-0.2,0.4c0-0.1,0-0.4-0.1-0.4c-0.1,0.6-0.3,1.5-0.2,2.1c0-0.5,0.1-1.1,0.3-1.5c-0.4,3.6-1.1,7.5-1.4,10.6    c0.1-0.2,0.3-0.6,0.3-0.4c-0.1,0.3-0.1,0.6-0.3,0.8c-0.1-0.6-0.6,2.5-0.6,2.9c0,0.3,0.3-0.3,0.3,0.2c-0.1,0.2-0.2,0.3-0.5,0.2    c0.1,0.2-0.1,0.6,0.2,0.6c-0.1,0.1-0.2,0.9-0.3,1.3c-0.2,0.1-0.4,0.1-0.2,0.4c0.2,0,0.5,0,0.5,0.2c-0.2,0.1-0.3,0.5-0.6,0.2    c-0.1,0.8-0.5,1.7-0.4,2.5c0.1-0.3-0.1-0.9,0.4-0.9c0,0.1-0.2,0.7-0.1,0.5c0.2,0.1-0.1-0.4,0.3-0.3c0,0.2-0.1,0.8-0.3,1.1    c0-0.6,0.2-0.8-0.4-0.3c-0.3,0.3-0.2,0.8-0.3,1.4c-0.2,1-0.5,1.6-0.4,2.1c0.2,0,0.5,0.8-0.2,0.2c0,0.5-0.5,1.1-0.4,1.4    c0.5,0.1,0.4,0.3,0.5,0.4c-0.2,0.4,0,0.6-0.4,0.3c-0.2,0.2,0.3,1.1-0.5,1.5c0-0.8,0.5-1.2,0.3-2c-0.2,1-0.7,2.2-0.7,3.2    c0-0.1,0.1-0.1,0.3-0.1c-0.4,0.5,0.1,0.5-0.3,1c-0.3,0.1,0-0.4-0.2-0.4c-0.7,3.3-1.7,6.3-1.6,9.7c-0.2-0.5-0.2-1.1-0.4-1.6    c-0.3,0.8,0.4,1.4,0.2,2.3c0.5,0,0.5,0.6,0.8,0.9c0.2,0.2,0.6,0.4,0.8,0.6c0.3,0.2,0.3,0.6,0.5,0.8c0.1,0.1,0.3,0.1,0.3,0.2    c0.2,0.1,0.3,0.3,0.4,0.5c0.4,0.1,0.8,0.1,1.2,0.3c0.4,0.1,0.6,0.3,1,0.4c1.4,0.2,2.5-0.3,3.2-0.8c0.2-0.1,0.4,0,0.5-0.1    c0.7-0.5,1.4-1.2,2.2-1.7l1-0.9c0.1-0.2,0.3-0.2,0.5-0.3c0.5-0.5,1-1.2,1.5-1.8c0.3-0.3,0.6-0.5,0.8-0.7c1.1-1,1.9-2.3,2.7-3.4    c0.3-0.4,0.6-0.6,0.8-0.8c0.4-0.5,0.7-1.3,1.2-1.9c0.1-0.2,0.3-0.1,0.4-0.4c0.3-0.6,0.6-1.1,0.9-1.5c0.1-0.3,0.4-0.4,0.5-0.7    c0.1-0.3,0.2-0.6,0.3-0.8c0.7-1.2,1.6-2.1,2-2.8c0.1-0.2-0.1-0.4,0-0.6c0.2-0.3,0.5-0.5,0.7-0.8c0.6-1.1,1.2-2.6,1.6-2.9    c0.5-0.9,1.7-2.3,1.8-3.4c0.6-0.3,0.7-1.1,1-1.4c0.3-0.3,0.3-0.6,0.5-1.1c0.6-0.8,1.4-1.9,1.9-2.9C56.9,35.8,57.1,35.6,57.1,35.5z     M60.8,27.3c0.1,0.1-0.1,0.7-0.2,0.7C60.6,27.7,60.6,27.4,60.8,27.3z M34,42.5c0.3,0.1,0.1,0.5,0,0.6C33.9,43.8,33.9,42.5,34,42.5    z M16.8,17.6c0.4-0.5,1.2-0.9,1.7-1.3C18.3,16.7,17.4,17.2,16.8,17.6z M29.9,43.3c0.2-0.4-0.1-0.5,0.3-0.7c-0.1,0.5-0.2,0.5,0,0.8    C30.2,43.3,30.1,43.3,29.9,43.3z M26.9,56.7c0.1-0.3,0.1-0.6,0.3-0.8C27.4,56,27.2,56.6,26.9,56.7z M27.9,54.3    c-0.2-0.1-0.1-0.6,0.3-0.6C28.2,54,27.8,53.9,27.9,54.3z M29,48.8c0.1-0.1,0.1,0.1,0.3,0.1C29.3,49.1,28.9,49.1,29,48.8z     M29.1,47.8c0.1-0.2,0-0.5,0.4-0.4C29.5,47.3,29.3,47.8,29.1,47.8z M29.4,47.3c-0.3-0.2-0.3-0.5-0.2-0.3c0.3-0.5,0-1.2,0.5-1.2    C29.6,46.2,29.6,46.9,29.4,47.3z M42.8,53.5c0.1-0.1,0.2-0.1,0.2-0.3C43.3,53.3,43,53.6,42.8,53.5z M45.2,51.4    c0,0.2-0.1,0.2-0.1,0.1c0,0.3-0.3,0.4-0.5,0.7C44.6,52.1,44.8,51.4,45.2,51.4z M45,52.2c0,0,0.1-0.6,0.5-0.5    C45.4,51.9,45.2,52.1,45,52.2z M44.5,51.4c0,0.6-0.8,1-1,1.4c0.2-0.4,0.2-0.7,0.5-1.1c0.4-0.4,0.8-0.9,1.1-1.4v-0.4    c0.1-0.1,0.3-0.1,0.3-0.1c0.5-0.5-0.1-0.4,0.5-0.4C45.2,50.3,45.2,50.5,44.5,51.4z M45.7,51c-0.1-0.2-0.1-0.2-0.1-0.5    c0.5-0.1-0.1-0.3,0.6-0.3c0-0.2-0.2-0.2-0.2-0.2c0-0.4,0.2-0.4,0.5-0.3C46.3,50.4,45.9,50.7,45.7,51z M51.6,43    c0.1-0.2,0.3-0.1,0.1-0.4C52.1,42.6,51.8,43.3,51.6,43z"></path>
		<path class="st0" d="M32.2,23.7c0.1-0.8,0.3-1.9,0.1-2.6C32.2,21.8,32,22.9,32.2,23.7z"></path>
		<path class="st0" d="M25.7,61.4c0-0.2,0-0.3,0-0.4c-0.3-0.1-0.2,0.3-0.3,0.4C25.6,61.3,25.4,61.1,25.7,61.4z"></path>
		<path class="st0" d="M32.3,20.8c0-0.1,0-0.5-0.1-0.2C32.2,20.8,32.3,21,32.3,20.8z"></path>
		<path class="st0" d="M60,20.4c0.4,0.1,0.3-0.3,0.4-0.4C60,19.8,60.1,20.2,60,20.4z"></path>
		<path class="st0" d="M48.2,44.1c-0.1-0.3,0.4-0.4,0.5-0.8C48.4,43.4,47.4,43.9,48.2,44.1z"></path>
		<path class="st0" d="M32,25c0.2-0.3,0.2-1.1,0.2-1.3C32.1,24.1,31.9,24.8,32,25z"></path>
		<path class="st0" d="M60,18.8c0.1,0.3-0.3,0.5-0.2,0.7C60,19.3,60.3,18.9,60,18.8z"></path>
		<path class="st0" d="M59.9,21.4c-0.2,0.4-0.3,0.5,0.1,0.5C60,21.7,60,21.6,59.9,21.4z"></path>
		<path class="st0" d="M32.2,27.1c0-0.2,0.3-0.5,0-0.5C32.2,26.7,32,27.1,32.2,27.1z"></path>
		<path class="st0" d="M59.1,21.1c-0.1,0.2-0.5,0.6-0.3,0.8C58.8,21.5,59.3,21.3,59.1,21.1z"></path>
		<path class="st0" d="M60,21.9C60,21.9,60,21.9,60,21.9C60,21.9,60,21.9,60,21.9C60,21.9,60,21.9,60,21.9z"></path>
		<path class="st0" d="M59.7,22.3c0.1,0.3-0.4,0.6-0.2,0.4c0.2-0.3,0.4-0.5,0.4-0.8c-0.2,0.3-0.8,0.4-0.7,0.8    C59.5,22.6,59.5,22.4,59.7,22.3z"></path>
		<path class="st0" d="M32,28.3c-0.1-0.3,0.3-1,0-1C32.2,27.7,31.7,28.2,32,28.3z"></path>
		<path class="st0" d="M31.9,25.8c-0.2,0.8-0.2,1.6,0,0.8C32,26.4,32,25.7,31.9,25.8z"></path>
		<path class="st0" d="M32.6,22.9c0.2-0.5,0.2-1.3,0.2-1.9c0-0.1-0.1-0.1-0.2,0C32.8,21.4,32.5,22.6,32.6,22.9z"></path>
		<path class="st0" d="M60.4,16.2c-0.1,0.1-0.3,0.5,0,0.6C60.3,16.5,60.6,16.3,60.4,16.2z"></path>
		<path class="st0" d="M46.6,47.4c0.4,0,0.3-0.4,0.5-0.6C46.7,46.8,46.8,47.3,46.6,47.4z"></path>
		<path class="st0" d="M46.3,47.6c-0.1,0.2-0.3,0.3,0,0.6C46.4,48,46.8,47.6,46.3,47.6z"></path>
		<path class="st0" d="M39.6,55.4c0.4-0.5,1.4-1.7,1.4-2C40.5,54,39.6,54.8,39.6,55.4z"></path>
		<path class="st0" d="M38.4,56.7c-0.3,0.4-0.4,0.8-0.8,1.2C38.1,57.6,38.5,57,38.4,56.7z"></path>
		<path class="st0" d="M44.4,49.9c0.2-0.3,0.8-0.4,0.8-0.7c-0.2,0-0.3-0.1-0.2-0.3c0.1-0.2,0.1,0.1,0.5,0c0.1-0.4,0.2-1.1,0.6-1.3    c0.1-0.4,0.5-0.6,0.5-0.6c0.3-0.4,0.4-0.7,0.3-0.8c0.4-0.1,0.3-0.4,0-0.4c-0.8,1.5-1.9,3-2.9,4.5C44.3,50.5,44.2,50,44.4,49.9z"></path>
		<path class="st0" d="M47.9,45.6c0.1-0.2,0.2-0.2,0.2-0.3C47.9,45.3,47.6,45.6,47.9,45.6z"></path>
		<path class="st0" d="M62.2,23.7c-0.2,0.4-0.5,0.6-0.6,1.1c-0.1,0.1-0.4,0.3,0,0.3C61.7,24.6,62.3,24,62.2,23.7z"></path>
		<path class="st0" d="M59.3,29.1c-0.2,0.5-1,0.8-0.6,1.3c0.1-0.5,0.4-0.7,0.6-0.8c0.2-0.4,0.5-0.9,0.2-1    C59.3,28.6,59.5,28.8,59.3,29.1z"></path>
		<path class="st0" d="M47.9,44.4c0.1-0.1,0.2-0.1,0-0.3c-0.5,0.4-0.7,1-1,1.5C47.4,45.5,47.7,44.4,47.9,44.4z"></path>
		<path class="st0" d="M60.4,27.4c0.1-0.2,0.3-0.2,0.3-0.4c0.1-0.2,0.1-0.4,0.2-0.5c0.2-0.5,0.7-0.9,0.6-1.3    c-0.8,0.8-1.2,2.1-1.9,3.2C60.1,28.3,60.1,27.7,60.4,27.4z"></path>
		<path class="st0" d="M60.4,15.8c0.3,1-0.3,2.2-0.2,2.9c0.4-1.1,0.7-1.6,0.4-3.1C60,15.9,60.4,15,59.9,15    C60,15.3,60,15.9,60.4,15.8z"></path>
		<path class="st0" d="M22.4,14c-0.2,0.3-1.2,0.3-1.1,0.7C21.5,14.6,22.6,14.2,22.4,14z"></path>
		<path class="st0" d="M40.1,55.9C40.1,55.9,40.1,56,40.1,55.9C40.1,56,40.1,56,40.1,55.9C40.1,56,40.1,55.9,40.1,55.9z"></path>
		<path class="st0" d="M61.1,40c1.3-0.3,1.6,1.5,2,1.8c0.5,0.4,1.2,0.5,1.7,0.5s1.2-0.1,1.6-0.3c-0.2-1.5-2.2-2.3-3.8-2.3    C62,39.7,61.4,39.8,61.1,40z"></path>
		<path class="st0" d="M72.6,51.6c-0.1,0-0.6,0.3-0.6,0.4C72.1,52,72.6,51.7,72.6,51.6z"></path>
		<path class="st0" d="M72.6,51.3c-0.1,0.1-0.1,0.2-0.1,0.3C73.1,51.3,72.6,51.3,72.6,51.3z"></path>
		<path class="st0" d="M78.3,57c-0.1,0.3-0.3,0.4-0.3,0.7C78.3,57.7,78.3,56.9,78.3,57z"></path>
		<path class="st0" d="M93.2,47.6c0.2-0.1,0.1-0.4,0.2-0.5c0.3-0.2-0.4-0.9-0.7-1.1c-0.2-0.1-0.6-0.3-0.8-0.3    c-0.3-0.2-1.2-1-1.5-0.8c-0.1,0-0.1-0.2-0.3-0.2c-0.2-0.2-0.5-0.3-0.8-0.3c0.2,0.1,0.2,0.2,0.2,0.2c-0.7-0.3-2.2-0.4-2.8-0.1    c0.1-0.1-0.1,0.3-0.1,0.4c0.2-0.1,0.5-0.4,0.7-0.1c0,0.2-1.5,0.4-1.9,0.6c-0.5,0.2-2.1,0.7-2.3,1.3c-0.1,0.2,0.3-0.4,0.4-0.1    c-0.5,0.1-0.2,0.3-0.7,0.5l0.1-0.3c0,0.1-0.4,0.1-0.4,0.1c-0.4,0,0,0.2-0.3,0.2c0.1,0.5-0.4,0-0.5,0.5c0.3,0,0.5-0.1,0.5,0.2    c-0.4-0.3-0.3,0.3-0.6,0.3c0.1-0.2-0.3,0.1-0.4,0.1c0,0.1,0.1,0.3,0,0.5c-0.3,0.3-0.8,0.1-1,0.3C80,49.1,80.4,49,80.5,49    c-0.2,0.5-1,0.5-0.7,0.8c-0.5,0.4-0.8,1-1.2,1.3c-0.1-0.4,0.4-0.6,0-0.6c0.3-0.2,0.3-0.7,0.3-1c0.3-0.6,0.4-0.8,0.5-1.6    c0.2-1,0.6-2,0.8-2.5c-0.1-0.8-0.4-1.1-0.9-1.5C79,43.7,79,43.6,79,43.4c0,0.1-0.1,0.2-0.1,0.3c-0.2-0.6-0.3-0.5-0.3-0.9    c-0.3-0.2-1-0.1-1.1-0.1c-0.1,0.1-0.4,0.1-0.2,0.3c-0.5-0.2-0.4-0.2-0.9-0.2c-0.2,0.2,0,0.4-0.1,0.5c0.1,0.3-0.3,0.7-0.3,1    c0.1-0.2,0.2-0.4,0.5-0.5c0.1,0.6-0.5,0.8-0.6,1.3c-0.1,0.3,0.1,0.3,0.1,0.5c0.1,0.2-0.2,0.2-0.2,0.5c0,0.3-0.4,0.7-0.5,0.8    c-0.3,1.2-0.5,2.2-0.7,3.1c-0.3,0.1-0.5,0.2-0.5,0.2c-0.2,0.4-0.3,0.4-0.4,0.4c-0.5,0.2-1.2,0.8-0.5,0.5c0,0,0.3-0.2,0.6-0.5h0.2    c0.1,0,0-0.1,0.6-0.5c0,0.1-0.1,0.2-0.1,0.3c0,0-0.1,0-0.1-0.1c0.1,0.3-0.4,0.5-0.6,0.5c-0.7,0.5-1.3,1.3-1.8,1.1    c-1,0.8-9.6,9-12.4,7c0.2-2.4,1.6-5.3,2.8-7.7c0.7-1.1,2.2-2.6,1.9-3.4c-0.3-1.4-2.3-0.6-3.3-1.3c-0.5,0.7-1.3,1-0.6,1.3    c-0.5-0.1-0.7,1.2-0.9,1.1c-1.2,3.4-1.5,2.5-2.5,5.9c-0.1,1-0.3,1.8-0.3,2.5c0,0.8,0.2,1.6,0.7,2.3c1,1.3,2.2,2.7,5.3,2.2    c2-0.2,7.3-5.1,10.2-7.5c0.2-0.1,0.4-0.3,0.7-0.6c-0.2,0.8-0.4,1.8-0.7,2.5c0.2,0.1,0.2,0.2,0,0.3c-0.1,0.6-0.3,1.2-0.4,1.7    c-0.1-0.1-0.1-0.3-0.2-0.3c-0.1,0.4-0.3,0.8-0.4,1c0.3,0.3,0.6,0.6,0.6,1.3c0.2,0,0.2,0,0.2,0.1c-0.2,0.4,0.4,0.6,0.5,0.7    c0.6,0.6,0.3,0.6,1.1,0.9c0.2,0.4,1.1,0.6,1.5,0.4c0,0-0.1-0.3,0-0.4c0.4,0,0.2,0,0.2-0.4c0.2-0.5,0.5-0.7,0.6-1.3    c-0.1,0-0.2,0-0.2-0.1c0.2-0.2,0.1-0.4,0.3-0.5c0.1,0.2-0.1,0.3,0.1,0.3c0.4-0.2-0.1-1.2,0.5-0.8c0-0.5,0.6-0.8,0.5-1.3    c0,0.2-0.3,0.5-0.3,0.3c0.8-1.8,1.4-2.7,2.8-4.1c0.2-0.2,0.2,0,0.4,0c0-0.4,0.5-0.5,0.4-1.1c0.7-0.7,1.4-1.2,1.8-1.7    c0.5-0.2,0.7-0.5,1-0.9c1.1-0.8,2.2-1.5,3.7-2.2c1-0.6,2.4-0.8,3.7-0.9C91.8,47.3,92.7,47.8,93.2,47.6z"></path>
		<path class="st0" d="M82.6,47C82.6,47,82.6,47,82.6,47C82.6,47,82.6,47,82.6,47z"></path>
		<path class="st0" d="M108.5,51.6c-0.1,0-0.6,0.3-0.6,0.4C108.1,52,108.5,51.7,108.5,51.6z"></path>
		<path class="st0" d="M99,41.8c0.5,0.4,1.2,0.5,1.7,0.5s1.2-0.1,1.6-0.3c-0.2-1.5-2.2-2.3-3.8-2.3c-0.6,0-1.2,0.1-1.5,0.3    C98.4,39.7,98.7,41.5,99,41.8z"></path>
		<path class="st0" d="M108.6,51.3c-0.1,0.1-0.1,0.2-0.1,0.3C109.1,51.3,108.5,51.3,108.6,51.3z"></path>
		<path class="st0" d="M124.1,41.9c0-0.4,0.3-0.5,0.3-0.5c-0.3-0.1-0.5,0.1-0.5,0.3C124,41.8,124.1,41.9,124.1,41.9z"></path>
		<path class="st0" d="M122.3,44.5c0.3-0.4,1-1.1,1.3-1.7C122.6,42.9,122.3,44.1,122.3,44.5z"></path>
		<path class="st0" d="M114.3,45.7c-0.2,0.2-0.5,0.2-0.6,0.5C113.9,46.3,114.3,45.8,114.3,45.7z"></path>
		<path class="st0" d="M123.9,42.2c0-0.2-0.1-0.3-0.3-0.3c0,0.3-0.2,0.4,0.1,0.6C123.8,42.5,123.9,42.4,123.9,42.2z"></path>
		<path class="st0" d="M126.5,63.7C126.5,63.7,126.5,63.7,126.5,63.7C126.5,63.7,126.5,63.6,126.5,63.7    C126.5,63.7,126.5,63.7,126.5,63.7z"></path>
		<path class="st0" d="M136,28.8c1.9-3.2,4.7-7.1,5-10.4c-0.3-0.2-0.8-0.2-0.8-0.3c0-0.2,0.1-0.3,0.3-0.5c-0.5,0-0.8,0.3-1,0.3    c-0.1,0-0.2,0-0.2-0.2c0.3,0.1,0.3-0.3,0.6-0.3c-0.1-0.5-0.8,0-1.1-0.5c0.1-0.1-0.6-0.8-1-0.8c-0.4,0-0.7,0.5-0.7,0.7    c0,0.4-1.5,2.5-1.6,2.8c-2.2,3.8-4.9,7.8-6.8,12.1c-0.1,0.5-4.2,7.5-4.2,9.3c0,0.1,0.1,0.2,0.1,0.2c0,0.1,0.5-1.1,0.6-1.1    c-0.1,0.5-0.6,2.3-0.9,2.5c0-0.1-0.2,0.2-0.2,0.2c-0.3,0.3-1.1,2.8-1.4,2.8c-1.1-1-2.9-1.3-4.5-1.3c-0.6,0-1.1,0.1-1.5,0.1    c0.3,0.1,0.4,0,0.5,0.1c-0.8,0.2-1.5,0.3-2.3,0.8c0.1-0.1,0.3-0.1,0.5-0.1c0.2,0,0.4,0,0.4,0.1c-0.3,0.3-1.7,1-2.1,1.4    c-0.6,0.1-2,2.1-2.4,2.8c0.2-0.2,0.1-0.3,0.1-0.5c-0.2,0.3-0.5,0.8-0.9,1.3c-0.2,0.1-0.4,0.2-0.4,0.2c-0.2,0.4-0.3,0.4-0.4,0.4    c-0.5,0.2-1.2,0.8-0.5,0.5c0,0,0.3-0.2,0.6-0.5h0.2c0.1,0,0.1-0.1,0.3-0.3c-0.1,0.2-0.3,0.4-0.4,0.5c0,0-0.1,0-0.1,0    c-0.7,0.5-1.3,1.3-1.8,1.1c-1,0.8-9.6,9-12.4,7c0.2-2.4,1.6-5.3,2.8-7.7c0.7-1.1,2.2-2.6,1.9-3.4c-0.3-1.4-2.3-0.6-3.3-1.3    c-0.5,0.7-1.3,1-0.6,1.3c-0.5-0.1-0.7,1.2-0.9,1.1c-1.2,3.4-1.5,2.5-2.5,5.9c-0.1,1-0.3,1.8-0.3,2.5c0,0.8,0.2,1.6,0.7,2.3    c1,1.3,2.2,2.7,5.3,2.2c1.6-0.2,5.5-3.5,8.4-6c-0.1,0.5-0.2,1-0.3,1.4c0.2-0.2,0.3-1,0.4-1.5c0.3-0.3,0.7-0.6,1-0.8    c-0.5,1.3-0.7,2.3-1.1,3.1c0-0.2,0-0.3,0-0.3c-0.1,0.2,0,0.5,0,0.6c0,0.1,0,0.2-0.1,0.2c0.1,0-0.2-1.1-0.3-1.1    c-0.3,0-0.4,0.6-0.4,1.1c0,0.4,0.2,0.8,0.2,0.3c0,0,0,0,0.1,0c0.4,1.8,1.9,2.6,3.7,2.6c4.2,0,9.6-5.7,11-7.5    c0,0.1,0.4-0.7,0.6-0.7c0.2,0-0.2,1.7-0.2,1.9c0,2.5,1.5,6.5,4.9,8.3c-0.2-0.2-0.2-0.2,0-0.5c0,0.3,0.2,0.2,0.3,0.2    c-0.1,0.1-0.2,0.1-0.2,0.3c0.1,0,0.1,0.1,0.2,0.1c0.1,0.1,0.1-0.2,0.1-0.2c0.4,0.2,0.5,0.4,0.8,0.5c1,0.5,2.8-0.5,2.8-0.5    c0.2-0.2-0.2-0.6-0.7-0.8c-0.5-0.3-0.6-0.1-0.9-0.3c-2.8-1.3-2.5-3.4-2.9-5.6c-0.3-1.9,0.1-3.5,0.3-4.8c0.3-2.2,3.2-12.1,5.6-15.8    C131.2,37.4,135.8,29.4,136,28.8z M138.8,23.2c0,0.2-0.1,0.6-0.3,0.8C138.2,23.8,138.7,23.3,138.8,23.2z M111.2,50.1    c-0.1,0.1-0.2,0.1-0.3,0.1c0.1-0.1,0.2-0.2,0.3-0.4l0.4-0.3C111.5,49.7,111.3,49.9,111.2,50.1z M111.6,49.4c-0.1,0-0.1,0-0.2,0    c0.2-0.3,0.4-0.5,0.6-0.7C111.9,48.9,111.8,49.2,111.6,49.4z M108.9,54.3c0,0,0.1-0.1,0.1-0.1c0,0.1,0,0.1,0,0.2    C109,54.4,109,54.4,108.9,54.3z M111.9,58.5c0.6-0.4,1-0.8,1.6-1.3c-0.2-0.1-3,1.5-2.9,1.5c-0.1,0-0.1,0-0.1,0    c-0.3-0.1-0.4-0.5-0.4-0.8c0-1.3,0.6-2.2,1.3-3.7c1.1-1,5.9-7.2,8.2-7.2c0.7,0,1.2,0.6,1.2,2.1C120.9,50.8,116.9,55.9,111.9,58.5z     M122.5,53.2c0,0.2-0.1,0.3-0.1,0.4c-0.1-0.1-0.2-0.3-0.2-0.4C122.3,53.1,122.5,53.1,122.5,53.2z M123.4,58.7    c-0.2,0-0.1,0.2-0.1,0.3c-0.1-0.2-0.4-0.5-0.5-0.8c0,0.5,0.3,0.8,0.4,1.3c0.1,0.2,0.2,0.3,0.2,0.4c-0.1,0.1-0.1,0.1-0.1,0.1    c-0.1,0-0.3-0.4-0.4-0.4c-0.8-0.7-0.9-2.9-0.9-4.7c0-0.6,0-1.2,0.1-1.5c0.3,0.5,0.3,0.7,0.3,0.9c0,0,0,0.3,0,0.5    c0,1.3,0.3,3.2,1.3,4.1C123.5,58.7,123.4,58.7,123.4,58.7z M123.8,59.6c0.4,0,0.7,0.6,0.7,1.1C124.4,60.3,123.9,60.1,123.8,59.6z     M124.7,61.2c0.1,0.1,0.4,0.4,0.3,0.5C124.7,61.6,124.7,61.2,124.7,61.2z M126.7,62.8c0-0.1,0.1,0,0.2,0.1    c-0.1,0.1-0.1,0.3-0.2,0.3C126.6,63,126.6,62.7,126.7,62.8z M126.5,62.6c0.1,0.1,0.1,0.2,0,0.3c-0.1-0.1-0.2-0.2-0.2-0.2    C126.5,62.6,126.5,62.7,126.5,62.6z M125.4,62.4c-0.1,0-0.1-0.1-0.2-0.1c0.1-0.1,0.4,0,0.4,0C125.7,62.4,125.6,62.5,125.4,62.4z     M125.7,39.8c-0.1-0.1-0.1-0.2-0.1-0.3c0-0.2,0.1-0.4,0.3-0.4C125.8,39.3,126,39.7,125.7,39.8z M126,38.9c0-0.2,0.1-0.3,0.3-0.4    C126.1,38.6,126.2,38.9,126,38.9z M137.8,24.6c0,0.3-0.6,1-0.8,1.2C137.2,25.3,137.4,24.8,137.8,24.6z M136.4,26.9    c-0.3,0.6-0.6,1.1-0.9,1.6C135.5,28.2,136,27.4,136.4,26.9z"></path>
		<path class="st0" d="M148.9,51.3c-0.1,0.1-0.1,0.2-0.1,0.3C149.4,51.3,148.8,51.3,148.9,51.3z"></path>
		<path class="st0" d="M148.8,51.6c-0.1,0-0.6,0.3-0.6,0.4C148.3,52,148.8,51.7,148.8,51.6z"></path>
		<path class="st0" d="M137.3,40c1.3-0.3,1.6,1.5,2,1.8c0.5,0.4,1.2,0.5,1.7,0.5s1.2-0.1,1.6-0.3c-0.2-1.5-2.2-2.3-3.8-2.3    C138.3,39.7,137.7,39.8,137.3,40z"></path>
		<path class="st0" d="M155.4,45.2c0.1-0.1,0.3-0.6,0.1-0.6c-0.2,0.3-0.3,0.3-0.3,0.4C155.2,45.1,155.2,45.2,155.4,45.2z"></path>
		<path class="st0" d="M180,49.9c0.1-0.2,0.1-0.3,0-0.4c-0.3,0.9-1.5,1.1-1.6,1.7c-0.1,0.1,0.1,0.2,0,0.2c-0.1,0-0.3,0.2-0.2,0.3    C178.3,51.6,179.8,50.9,180,49.9z"></path>
		<path class="st0" d="M176.8,52.8c0-0.1,0-0.3,0.1-0.4c-0.6,0.1-0.8,0.5-0.5,0.7C176.4,52.8,176.7,53.1,176.8,52.8z"></path>
		<path class="st0" d="M177.8,52.1c0.1-0.2,0.3-0.1,0.4-0.5c-0.3-0.1-0.6,0.2-0.7,0.3c-0.3,0.2-0.5,0.2-0.5,0.4    c0.2,0,0.5-0.2,0.5-0.3C177.6,52.1,177.6,52.2,177.8,52.1z"></path>
		<path class="st0" d="M183.9,44.4c-0.1,0.2-0.4,0.1-0.3,0.5C183.9,44.9,184.2,44.6,183.9,44.4z"></path>
		<path class="st0" d="M211.7,49.8c-0.2-0.1-0.3,0.3-0.2,0.3C211.5,49.9,211.7,50,211.7,49.8z"></path>
		<path class="st0" d="M210.2,50.7c-0.2,0.1-0.2,0.4-0.3,0.5C210.1,51.3,210.3,50.8,210.2,50.7z"></path>
		<path class="st0" d="M181.9,46.9c-0.3,0-0.4,0.3-0.2,0.4C181.8,47.1,181.9,47,181.9,46.9z"></path>
		<path class="st0" d="M212.2,49.4c-0.1,0-0.1,0.1-0.2,0.3C212.2,49.6,212.2,49.5,212.2,49.4z"></path>
		<path class="st0" d="M190.3,50.5c-0.1,0.1-0.6,0.2-0.4,0.3C189.9,50.7,190.4,50.7,190.3,50.5z"></path>
		<path class="st0" d="M207,53.6c0-0.1,0.4-0.5,0.2-0.5C207.2,53.2,206.6,53.4,207,53.6z"></path>
		<path class="st0" d="M211.2,49.9c-0.1,0-0.4,0.4-0.4,0.5C210.9,50.4,211.4,50,211.2,49.9z"></path>
		<path class="st0" d="M180.4,49.7c-0.1-0.4,0.3-0.5-0.1-0.7C180.1,49.2,180.3,49.4,180.4,49.7C180.4,49.7,180.4,49.7,180.4,49.7z"></path>
		<path class="st0" d="M185.4,54.9c0.2-0.3,0.4-0.3,0.4-0.4C185.8,54.5,185.2,54.7,185.4,54.9z"></path>
		<path class="st0" d="M212.5,50.1c-0.2-0.2-0.6,0.3-0.9,0.3c0-0.1,0.3-0.1,0.2-0.3c-0.4-0.1-1,0.6-1.3,0.9    c-0.4,0.4-0.2,0.3-0.7,0.5c-0.1,0.1-0.8,0.6-0.7,0.7c-0.2-0.2-0.2,0-0.5,0.1c0.1-0.1,0.1-0.3,0.2-0.5c-0.3,0.1-0.8,0.8-0.8,1.1    c-0.1,0.1-0.1,0.2-0.2,0.2c0.1-0.2-0.7,0.3-0.6,0.3c0.3,0.3,0.3-0.3,0.4-0.1c0,0.2-0.9,0.5-0.9,0.5c-0.2,0-1,1.3-1.3,1.1    c-0.1,0.1,0,0.4-0.2,0.4c0-0.1,0.2-0.3,0-0.4c-0.2,0.3-0.1,0.5-0.2,0.6c-0.1-0.1,0-0.3-0.2-0.2c0.1,0.4-0.4,0.7-0.7,0.6    c0,0.5-0.5,0.3-0.7,0.6c-0.4,0.6-1.3,0.7-1.7,1.3c-0.4,0.7-1.9,1.3-2.7,1.7c-1.3,0-2.3,1-3.7,0.6c-0.7-1-0.1-2.9-0.1-3.9    c0-0.7,0.3-1.4,0.5-2.2s0.1-1.3,0.1-2.1c0-0.6,0.3-1.1-0.3-1.5c-0.2-0.1-0.3-0.3-0.3-0.6c-0.2-0.5-0.3,0.1-0.5-0.1    c-0.1-0.2-0.2-0.4-0.3-0.5c-0.4-0.2-0.8,0-1.2,0c0-0.1-0.1-0.2-0.2-0.3c-0.3-0.3-0.8-0.2-1.2-0.1c0.2,0,0.3,0.1,0.4,0.2    c-0.1,0-0.1,0-0.2,0l0.2,0.3c-0.3,0.4-0.8-0.1-1.1,0.4c0.1,0,0.4-0.2,0.3,0.1c-0.3-0.1-0.6,0.5-1.2,0.6c0,0.3,0.4,0.4,0.2,0.5    c-0.2-0.1-0.1-0.3-0.3-0.4c0.1,0.4-0.4,0.3-0.4,0.3c-0.4,0.8-1.7,0.6-2.2,1.6c0.5-0.3,0.6-0.7,1.4-0.8c-0.3,0.6-0.8,0.5-1.1,0.8    c0.1,0,0.2,0.2,0.2,0.2c-0.3,0.1-0.2,0.1-0.4,0.3c-0.1,0.1-0.3,0.1-0.5,0.2c-0.3,0.1-0.1,0.2-0.3,0.4c0,0-0.3,0.1-0.5,0.1    c0,0.9-0.7,0.8-1.2,1.4c-0.3,0.2-0.5,0.5-0.7,0.7c-0.3,0.3-0.8,0.3-1,0.4c0-0.8,0.6-1.6,1-2.4c0.4-1.1,0.8-2.1,1.2-3.2    c0.3-0.8,0.8-1.6,1.2-2.4c0.4-0.6,0.6-0.7,0.6-1.6c0-0.3,0.1-0.5-0.2-0.6c-0.8-0.8-2.2-0.7-2.6-1.3c-0.3-0.1-0.3,0.1-0.4,0.1    c0-0.1,0.1-0.1,0.1-0.2c-0.5-0.1-0.7,0.7-0.8,1c0,0-0.1,0.3-0.5-0.2c-0.5-0.2-0.2,0.5-0.3,0.6c-0.3,0.5-0.8,1.3-1.4,1.6    c0.1,0.2,0.1,0.4,0.3,0.5c0.1-0.3,0.4-0.7,0.6-0.6c-0.2,0.4-0.5,0.6-0.7,1c0.1-0.3-0.2-0.4-0.1-0.7c-0.2,0.1-0.4,0.8-0.7,0.6    c0.3,0.3-0.1,0.5-0.1,0.3c-0.2,0.2-0.2,0.3,0,0.5c0.2,0.1,0.3-0.1,0.5-0.1c-0.3,0.7-0.8,1.1-1.3,1.6c-1.5,1.1-3.4,2.9-4.7,3.2    l0.2-0.3c0.2,0.1,0.2-0.2,0.3-0.4c-0.1,0-0.3,0.2-0.4,0.2c-3.6,2.2-6.1,3.6-8.6,4c-0.7,0-0.6-0.7-0.6-1c0.1-1.8,0.9-4.6,0.9-6.6    c0-1.4-0.4-2.5-1.8-3c0.1-0.2,0.7,0.2,0.7,0.1c0-0.3-1-1-1.3-1c-0.3,0-0.1-0.1-0.6-0.1c-0.2,0-0.1,0.5-0.5,0.5    c-0.1-1.1-3.1-2.9-5.3-2.9c-1,0-2,0.3-2.5,1.1c0.3,0,0.4-0.1,0.6-0.1c0,0,0.3,0.3,0.2,0.4c-0.3,0.2-0.4-0.1-0.7,0.5    c-0.3,0.3-0.3,0.2-0.6,0.5c-0.2,0-0.5,0.3-0.6,0.5c-1.3,1.2-2.5,2.4-3.6,3.8c-0.3,0.2-0.7,0.3-0.7,0.3c-0.2,0.4-0.3,0.4-0.4,0.4    c-0.5,0.2-1.2,0.8-0.5,0.5c0,0,0.3-0.2,0.6-0.5h0.2c0.1,0,0-0.1,0.6-0.5c-0.2,0.2-0.3,0.5-0.5,0.7c-0.1,0-0.2,0.1-0.3,0.1    c-0.7,0.5-1.3,1.3-1.8,1.1c-1,0.8-9.6,9-12.4,7c0.2-2.4,1.6-5.3,2.8-7.7c0.7-1.1,2.2-2.6,1.9-3.4c-0.3-1.4-2.3-0.6-3.3-1.3    c-0.5,0.7-1.3,1-0.6,1.3c-0.5-0.1-0.7,1.2-0.9,1.1c-1.2,3.4-1.5,2.5-2.5,5.9c-0.1,1-0.3,1.8-0.3,2.5c0,0.8,0.2,1.6,0.7,2.3    c1,1.3,2.2,2.7,5.3,2.2c1.7-0.2,5.7-3.7,8.7-6.2c-0.3,0.8-0.6,1.6-0.9,2.4c-0.3,0.3-0.4,0.6-0.4,1.1c0,1.6,2.2,3.4,4.3,3.4    c3.4,0,9.7-8.8,12.6-9.8c-0.5,1.1-0.6,2.1-0.6,3c0,3.1,2.1,5,4.5,5c3.1,0,8.1-3.8,11.7-6.7c0.6-0.5,1.1-1,1.5-1.4    c-0.4,1.9-1,3.7-1.5,5.6c-0.1,0.6-0.3,1.4,0.3,1.9c0.2,0.1,1.3,1.4,1.6,0.6c0.1,0.1,0.1,0.2,0,0.3c0.5-0.4,0.8,0.3,1.5,0.1    c0.1-0.1,0.4,0,0.6-0.1c0.4-0.2,0.5-0.8,0.8-1.1c0.3-0.3,0.9-0.8,1.3-1c0.2-0.3,0.5-0.6,0.7-0.9c0.8-0.7,1.7-1.5,2.5-2.1    c1.5-1.2,2.8-2.9,4.5-3.7c-0.2,1.7-0.5,3.4-0.5,5.1c0,1.3,0.3,2.6,1.1,3.9c0.8,1.2,2,1.6,3.2,1.6c1.9,0,3.9-1,5.5-2    c2.4-1.6,4.6-3.5,6.7-5.5c0.4-0.4,0.8-0.7,1.2-1.2c0.3-0.3,0.9-1.1,1.2-1.4c0.4-0.6,0.8-1,1.2-1.5C212.3,51,212.6,50.3,212.5,50.1    z M159.8,49.8c-0.2,0.8-0.5,1.5-1,2.2c-1.3,2-2,2.2-4.3,4.3l-1,0.6c0-0.2,0.4-0.6,0.2-0.6c-0.2,0-1,1-1.3,0.8l0.1-0.3    c-0.3,0.2-0.5,0.3-1,0.5c0.1-0.8,0.9-1.9,1.1-2.1c0.1-0.1-0.1-0.1-0.3-0.2c2.1-3.4,4.1-6.8,7.3-9.2c0.3,0.9,0.4,1.7,0.4,2.5    C159.9,48.9,159.9,49.4,159.8,49.8z M173.8,55.1c-0.4-0.3,0.5-0.6,0.7-0.6C174.5,54.7,173.9,54.8,173.8,55.1z M174.7,54.3    c0.1-0.3,0.3-0.3,0.3-0.3C175.1,54.1,175.1,54.3,174.7,54.3z M181.1,48.6c0.1,0,0.1,0.2,0.2,0C181.5,48.9,180.7,49.1,181.1,48.6z"></path>
		<path class="st0" d="M185.2,54.7c-0.1,0.1-0.3,0.1-0.1,0.3C185.3,55,185.4,54.7,185.2,54.7z"></path>
		<path class="st0" d="M188.6,52.3c0.2,0,0.3-0.2,0.5-0.3C188.8,52,188.7,52.1,188.6,52.3z"></path>
		<path class="st0" d="M184.3,56.1c0-0.1,0.5-0.2,0.2-0.4C184.4,55.9,184.1,56,184.3,56.1z"></path>
		<path class="st0" d="M184.8,55.4c0.1-0.3,0.3,0,0.3-0.4C184.9,55,184.8,55.2,184.8,55.4z"></path>
	</g>
</g>
</svg>
